<svg xmlns="http://www.w3.org/2000/svg" width="90" height="67.221"><path d="M30.594 67.22c-1.507 0-2.728-1.222-2.728-2.728V51.143c0-1.506 1.221-2.728 2.728-2.728 1.506 0 2.728 1.222 2.728 2.728v13.349c0 1.506-1.221 2.728-2.728 2.728zM44.764 67.22c-1.506 0-2.728-1.222-2.728-2.728V39.379c0-1.506 1.221-2.728 2.728-2.728 1.507 0 2.728 1.222 2.728 2.728v25.113c-.001 1.506-1.222 2.728-2.728 2.728z"/><path d="M 37.827,19.095 C 37.819,19.017 37.811,18.931 37.796,18.853 37.757,18.666 37.702,18.471 37.617,18.292 37.594,18.222 37.563,18.159 37.531,18.097 37.437,17.926 37.321,17.754 37.188,17.598 37.172,17.582 37.164,17.567 37.149,17.559 37.103,17.497 37.048,17.442 36.985,17.388 36.907,17.31 36.821,17.24 36.736,17.178 36.674,17.131 36.611,17.085 36.541,17.046 36.44,16.984 36.338,16.929 36.237,16.89 36.175,16.859 36.113,16.835 36.042,16.812 36.003,16.796 35.964,16.781 35.925,16.773 35.668,16.687 35.395,16.648 35.114,16.648 H 7.728 c -0.272,0 -0.545,0.039 -0.811,0.125 -0.046,0.016 -0.093,0.031 -0.14,0.047 -0.062,0.016 -0.117,0.039 -0.172,0.07 -0.148,0.062 -0.296,0.148 -0.436,0.249 -0.062,0.039 -0.117,0.086 -0.171,0.133 -0.062,0.047 -0.125,0.101 -0.179,0.156 -0.062,0.055 -0.109,0.109 -0.164,0.171 -0.008,0.016 -0.024,0.023 -0.031,0.039 -0.054,0.07 -0.109,0.14 -0.156,0.21 -0.086,0.125 -0.156,0.242 -0.21,0.374 -0.031,0.055 -0.054,0.117 -0.07,0.171 -0.062,0.148 -0.109,0.304 -0.14,0.46 C 5.032,18.931 5.025,19.017 5.017,19.095 5.008,19.189 5,19.283 5,19.376 c 0,0.288 0.047,0.569 0.14,0.849 0.023,0.086 0.062,0.179 0.101,0.265 0.031,0.07 0.07,0.14 0.109,0.21 0.031,0.062 0.062,0.117 0.101,0.171 0.132,0.21 0.304,0.397 0.499,0.569 l 0.047,0.039 12.696,10.88 v 48.523 c 0,1.504 1.223,2.728 2.728,2.728 1.512,0 2.728,-1.224 2.728,-2.728 V 32.36 l 12.657,-10.841 0.086,-0.078 c 0.078,-0.062 0.148,-0.132 0.21,-0.203 0.078,-0.078 0.148,-0.156 0.21,-0.249 0.047,-0.062 0.094,-0.125 0.133,-0.195 0.062,-0.094 0.117,-0.195 0.156,-0.304 0.031,-0.055 0.055,-0.117 0.078,-0.179 0.016,-0.039 0.031,-0.086 0.039,-0.125 0.086,-0.265 0.124,-0.538 0.124,-0.811 0.001,-0.092 -0.007,-0.186 -0.015,-0.28 z m -16.398,8.418 -6.321,-5.409 h 12.633 z" transform="translate(-5 -16.389)"/><path fill="none" d="M7.736 19.376L7.728 19.376" transform="translate(-5 -16.389)"/></svg>