<svg xmlns="http://www.w3.org/2000/svg" xmlns:xlink="http://www.w3.org/1999/xlink" version="1.1" x="0px" y="0px" viewBox="0 0 100 125" enable-background="new 0 0 100 100" xml:space="preserve"><path d="M78.103,83.609c-1.507,0-2.728-1.222-2.728-2.728V31.107c0-1.506,1.221-2.728,2.728-2.728s2.728,1.222,2.728,2.728v49.774  C80.83,82.387,79.609,83.609,78.103,83.609z"/><path d="M35.594,83.609c-1.507,0-2.728-1.222-2.728-2.728V67.532c0-1.506,1.221-2.728,2.728-2.728c1.506,0,2.728,1.222,2.728,2.728  v13.349C38.322,82.387,37.101,83.609,35.594,83.609z"/><path d="M49.764,83.609c-1.506,0-2.728-1.222-2.728-2.728V55.768c0-1.506,1.221-2.728,2.728-2.728c1.507,0,2.728,1.222,2.728,2.728  v25.113C52.491,82.387,51.27,83.609,49.764,83.609z"/><path d="M63.933,83.609c-1.507,0-2.728-1.222-2.728-2.728V43.098c0-1.506,1.221-2.728,2.728-2.728s2.728,1.222,2.728,2.728v37.783  C66.661,82.387,65.44,83.609,63.933,83.609z"/><path d="M92.272,83.609c-1.507,0-2.728-1.222-2.728-2.728V19.117c0-1.506,1.221-2.728,2.728-2.728S95,17.61,95,19.117v61.765  C95,82.387,93.779,83.609,92.272,83.609z"/><g><path d="M37.827,19.095c-0.008-0.078-0.016-0.164-0.031-0.242c-0.039-0.187-0.094-0.382-0.179-0.561   c-0.023-0.07-0.054-0.133-0.086-0.195c-0.094-0.171-0.21-0.343-0.343-0.499c-0.016-0.016-0.024-0.031-0.039-0.039   c-0.046-0.062-0.101-0.117-0.164-0.171c-0.078-0.078-0.164-0.148-0.249-0.21c-0.062-0.047-0.125-0.093-0.195-0.132   c-0.101-0.062-0.203-0.117-0.304-0.156c-0.062-0.031-0.124-0.055-0.195-0.078c-0.039-0.016-0.078-0.031-0.117-0.039   c-0.257-0.086-0.53-0.125-0.811-0.125H7.728c-0.272,0-0.545,0.039-0.811,0.125c-0.046,0.016-0.093,0.031-0.14,0.047   c-0.062,0.016-0.117,0.039-0.172,0.07c-0.148,0.062-0.296,0.148-0.436,0.249c-0.062,0.039-0.117,0.086-0.171,0.133   c-0.062,0.047-0.125,0.101-0.179,0.156c-0.062,0.055-0.109,0.109-0.164,0.171c-0.008,0.016-0.024,0.023-0.031,0.039   c-0.054,0.07-0.109,0.14-0.156,0.21c-0.086,0.125-0.156,0.242-0.21,0.374c-0.031,0.055-0.054,0.117-0.07,0.171   c-0.062,0.148-0.109,0.304-0.14,0.46c-0.016,0.078-0.023,0.164-0.031,0.242C5.008,19.189,5,19.283,5,19.376   c0,0.288,0.047,0.569,0.14,0.849c0.023,0.086,0.062,0.179,0.101,0.265c0.031,0.07,0.07,0.14,0.109,0.21   c0.031,0.062,0.062,0.117,0.101,0.171c0.132,0.21,0.304,0.397,0.499,0.569l0.047,0.039l12.696,10.88v48.523   c0,1.504,1.223,2.728,2.728,2.728c1.512,0,2.728-1.224,2.728-2.728V32.36l12.657-10.841l0.086-0.078   c0.078-0.062,0.148-0.132,0.21-0.203c0.078-0.078,0.148-0.156,0.21-0.249c0.047-0.062,0.094-0.125,0.133-0.195   c0.062-0.094,0.117-0.195,0.156-0.304c0.031-0.055,0.055-0.117,0.078-0.179c0.016-0.039,0.031-0.086,0.039-0.125   c0.086-0.265,0.124-0.538,0.124-0.811C37.843,19.283,37.835,19.189,37.827,19.095z M21.429,27.513l-6.321-5.409h12.633   L21.429,27.513z"/><g><line fill="none" x1="7.736" y1="19.376" x2="7.728" y2="19.376"/></g></g><text x="0" y="115" fill="#000000" font-size="5px" font-weight="bold" font-family="'Helvetica Neue', Helvetica, Arial-Unicode, Arial, Sans-serif">Created by Garrett Knoll</text><text x="0" y="120" fill="#000000" font-size="5px" font-weight="bold" font-family="'Helvetica Neue', Helvetica, Arial-Unicode, Arial, Sans-serif">from the Noun Project</text></svg>