<svg xmlns="http://www.w3.org/2000/svg" xmlns:xlink="http://www.w3.org/1999/xlink" version="1.1" x="0px" y="0px" viewBox="0 0 100 125" enable-background="new 0 0 100 100" xml:space="preserve"><path d="M49.762,83.609c-1.512,0-2.738-1.226-2.738-2.738V67.47c0-1.512,1.226-2.738,2.738-2.738c1.512,0,2.738,1.226,2.738,2.738  v13.401C52.501,82.383,51.275,83.609,49.762,83.609z"/><path d="M63.987,83.609c-1.512,0-2.738-1.226-2.738-2.738V55.66c0-1.512,1.226-2.738,2.738-2.738c1.512,0,2.738,1.226,2.738,2.738  v25.211C66.725,82.383,65.499,83.609,63.987,83.609z"/><path d="M78.211,83.609c-1.512,0-2.738-1.226-2.738-2.738v-37.93c0-1.512,1.226-2.738,2.738-2.738s2.738,1.226,2.738,2.738v37.93  C80.95,82.383,79.724,83.609,78.211,83.609z"/><g><path d="M52.005,18.845c-0.008-0.078-0.016-0.164-0.031-0.243c0-0.008-0.008-0.023-0.008-0.031   c-0.016-0.086-0.039-0.172-0.07-0.258c-0.008-0.039-0.024-0.078-0.039-0.109c-0.015-0.055-0.039-0.11-0.062-0.164   c-0.024-0.07-0.055-0.133-0.086-0.196c-0.094-0.172-0.211-0.344-0.344-0.501c-0.016-0.016-0.023-0.031-0.039-0.039   c-0.047-0.063-0.102-0.117-0.164-0.172c-0.078-0.078-0.164-0.149-0.251-0.211c-0.008-0.008-0.016-0.008-0.023-0.016   c-0.047-0.031-0.086-0.07-0.141-0.094c-0.008-0.008-0.023-0.016-0.031-0.023c-0.102-0.063-0.203-0.117-0.305-0.156   c-0.063-0.031-0.125-0.055-0.196-0.078c-0.039-0.016-0.078-0.031-0.118-0.039c-0.07-0.023-0.133-0.039-0.203-0.055   c-0.039-0.016-0.086-0.023-0.133-0.023c-0.008-0.008-0.016-0.008-0.024-0.008c-0.055-0.008-0.109-0.016-0.172-0.023   c-0.094-0.008-0.188-0.016-0.282-0.016H21.789c-0.094,0-0.188,0.008-0.282,0.016c-0.062,0.008-0.117,0.016-0.172,0.023   c-0.008,0-0.008,0-0.016,0.008c-0.047,0-0.102,0.008-0.141,0.023c-0.07,0.016-0.133,0.031-0.203,0.055   c-0.047,0.016-0.094,0.031-0.141,0.047c-0.008,0-0.016,0.008-0.023,0.008c-0.055,0.016-0.102,0.039-0.149,0.063   c-0.149,0.063-0.298,0.149-0.438,0.25c-0.063,0.039-0.117,0.086-0.172,0.133c-0.063,0.047-0.125,0.102-0.18,0.156   c-0.063,0.055-0.109,0.11-0.164,0.172c-0.008,0.016-0.023,0.023-0.031,0.039c-0.055,0.07-0.109,0.141-0.156,0.211   c-0.086,0.125-0.157,0.242-0.211,0.376c-0.031,0.055-0.055,0.117-0.071,0.172c-0.023,0.055-0.047,0.117-0.062,0.172   c-0.031,0.086-0.055,0.172-0.071,0.258c0,0.008-0.008,0.023-0.008,0.031c-0.016,0.078-0.024,0.164-0.031,0.243   c-0.008,0.094-0.016,0.188-0.016,0.282c0,0.086,0.008,0.18,0.016,0.266c0,0.055,0.008,0.11,0.023,0.164   c0.008,0.063,0.024,0.133,0.039,0.196c0.016,0.078,0.039,0.149,0.062,0.227c0.008,0.039,0.024,0.086,0.047,0.133   c0.016,0.047,0.039,0.094,0.055,0.133c0.031,0.07,0.07,0.141,0.109,0.211c0.031,0.063,0.063,0.117,0.102,0.172   c0.008,0.008,0.008,0.016,0.016,0.023c0.062,0.094,0.125,0.18,0.196,0.258c0.094,0.102,0.188,0.196,0.289,0.289l0.047,0.039   l12.745,10.922v48.712c0,1.51,1.228,2.738,2.738,2.738c1.518,0,2.738-1.228,2.738-2.738V32.161L50.98,21.278l0.086-0.078   c0.078-0.062,0.149-0.133,0.211-0.203c0.078-0.078,0.149-0.157,0.211-0.25c0.047-0.063,0.094-0.125,0.133-0.196   c0.063-0.094,0.117-0.196,0.157-0.305c0.023-0.031,0.039-0.078,0.055-0.125c0.008-0.008,0.008-0.008,0.008-0.016   c0.008-0.016,0.008-0.023,0.015-0.039c0.016-0.039,0.031-0.086,0.039-0.125c0.086-0.266,0.125-0.54,0.125-0.814   C52.02,19.033,52.012,18.939,52.005,18.845z M35.543,27.295l-6.345-5.43H41.88L35.543,27.295z"/></g><text x="0" y="115" fill="#000000" font-size="5px" font-weight="bold" font-family="'Helvetica Neue', Helvetica, Arial-Unicode, Arial, Sans-serif">Created by Garrett Knoll</text><text x="0" y="120" fill="#000000" font-size="5px" font-weight="bold" font-family="'Helvetica Neue', Helvetica, Arial-Unicode, Arial, Sans-serif">from the Noun Project</text></svg>