<svg xmlns="http://www.w3.org/2000/svg" xmlns:xlink="http://www.w3.org/1999/xlink" version="1.1" x="0px" y="0px" viewBox="0 0 100 125" enable-background="new 0 0 100 100" xml:space="preserve"><path d="M85.323,83.609c-1.512,0-2.738-1.226-2.738-2.738V30.903c0-1.512,1.226-2.738,2.738-2.738c1.512,0,2.738,1.226,2.738,2.738  v49.968C88.061,82.383,86.835,83.609,85.323,83.609z"/><path d="M56.874,83.609c-1.512,0-2.738-1.226-2.738-2.738V55.66c0-1.512,1.226-2.738,2.738-2.738c1.512,0,2.738,1.226,2.738,2.738  v25.211C59.612,82.383,58.386,83.609,56.874,83.609z"/><path d="M71.098,83.609c-1.512,0-2.738-1.226-2.738-2.738v-37.93c0-1.512,1.226-2.738,2.738-2.738c1.512,0,2.738,1.226,2.738,2.738  v37.93C73.836,82.383,72.61,83.609,71.098,83.609z"/><g><path d="M44.893,18.845c-0.008-0.078-0.016-0.164-0.031-0.243c-0.023-0.102-0.047-0.211-0.086-0.313   c-0.047-0.156-0.11-0.313-0.188-0.454c-0.039-0.086-0.094-0.164-0.149-0.242c-0.047-0.07-0.102-0.141-0.156-0.211   c-0.008-0.016-0.023-0.023-0.031-0.039c-0.055-0.063-0.102-0.117-0.164-0.172c-0.055-0.055-0.117-0.11-0.18-0.156   c-0.055-0.047-0.11-0.094-0.172-0.133c-0.031-0.023-0.055-0.047-0.086-0.055c-0.055-0.039-0.117-0.078-0.18-0.11   c-0.055-0.039-0.11-0.063-0.172-0.086c-0.055-0.031-0.109-0.055-0.172-0.07c-0.047-0.016-0.094-0.031-0.141-0.047   c-0.266-0.086-0.54-0.125-0.814-0.125H14.677c-0.274,0-0.548,0.039-0.814,0.125c-0.047,0.016-0.094,0.031-0.141,0.047   c-0.063,0.016-0.117,0.039-0.172,0.07c-0.063,0.023-0.118,0.047-0.172,0.086c-0.063,0.031-0.125,0.07-0.18,0.11   c-0.031,0.008-0.055,0.031-0.086,0.055c-0.063,0.039-0.118,0.086-0.172,0.133c-0.063,0.047-0.125,0.102-0.18,0.156   c-0.063,0.055-0.11,0.11-0.164,0.172c-0.008,0.016-0.023,0.023-0.031,0.039c-0.055,0.07-0.11,0.141-0.157,0.211   c-0.055,0.078-0.109,0.156-0.149,0.242c-0.078,0.141-0.141,0.297-0.188,0.454c-0.039,0.102-0.063,0.211-0.086,0.313   c-0.016,0.078-0.024,0.164-0.031,0.243c-0.008,0.094-0.016,0.188-0.016,0.282c0,0.274,0.039,0.548,0.125,0.814   c0.024,0.078,0.047,0.149,0.086,0.227c0.031,0.102,0.078,0.196,0.141,0.289c0.031,0.063,0.063,0.117,0.102,0.172   c0.133,0.211,0.305,0.399,0.501,0.571l0.047,0.039l12.745,10.922v48.712c0,1.51,1.228,2.738,2.738,2.738s2.738-1.228,2.738-2.738   V32.161l12.745-10.922l0.047-0.039c0.196-0.172,0.368-0.36,0.501-0.571c0.039-0.055,0.07-0.109,0.102-0.172   c0.063-0.094,0.109-0.188,0.141-0.289c0.039-0.078,0.063-0.149,0.086-0.227c0.086-0.266,0.125-0.54,0.125-0.814   C44.909,19.033,44.901,18.939,44.893,18.845z M28.424,27.295l-6.337-5.43h12.675L28.424,27.295z"/><g><line fill="none" x1="14.685" y1="19.127" x2="14.677" y2="19.127"/></g><g><line fill="none" x1="14.685" y1="19.127" x2="14.677" y2="19.119"/></g></g><path d="M42.649,83.609c-1.512,0-2.738-1.226-2.738-2.738V67.47c0-1.512,1.226-2.738,2.738-2.738s2.738,1.226,2.738,2.738v13.401  C45.387,82.383,44.161,83.609,42.649,83.609z"/><text x="0" y="115" fill="#000000" font-size="5px" font-weight="bold" font-family="'Helvetica Neue', Helvetica, Arial-Unicode, Arial, Sans-serif">Created by Garrett Knoll</text><text x="0" y="120" fill="#000000" font-size="5px" font-weight="bold" font-family="'Helvetica Neue', Helvetica, Arial-Unicode, Arial, Sans-serif">from the Noun Project</text></svg>