<svg xmlns="http://www.w3.org/2000/svg" xmlns:xlink="http://www.w3.org/1999/xlink" version="1.1" x="0px" y="0px" viewBox="0 0 100 125" enable-background="new 0 0 100 100" xml:space="preserve"><path d="M59.611,67.471v13.402c0,1.51-1.228,2.738-2.738,2.738c-1.518,0-2.738-1.228-2.738-2.738V67.471  c0-1.51,1.221-2.738,2.738-2.738C58.383,64.733,59.611,65.961,59.611,67.471z"/><path d="M73.835,55.657v25.216c0,1.51-1.229,2.738-2.738,2.738c-1.51,0-2.738-1.228-2.738-2.738V55.657  c0-1.51,1.228-2.738,2.738-2.738C72.607,52.919,73.835,54.147,73.835,55.657z"/><g><path d="M59.119,18.846c-0.008-0.078-0.016-0.164-0.031-0.243c-0.039-0.156-0.078-0.313-0.141-0.462   c-0.016-0.055-0.039-0.117-0.07-0.172c-0.055-0.133-0.125-0.258-0.211-0.376c-0.047-0.07-0.102-0.141-0.157-0.211   c-0.008-0.016-0.023-0.023-0.031-0.039c-0.055-0.063-0.102-0.117-0.164-0.172c-0.055-0.055-0.117-0.11-0.18-0.156   c-0.055-0.047-0.109-0.094-0.172-0.133c-0.141-0.102-0.29-0.188-0.438-0.25c-0.055-0.031-0.11-0.055-0.172-0.07   c-0.047-0.016-0.094-0.031-0.141-0.047c-0.266-0.086-0.54-0.125-0.814-0.125H28.903c-0.274-0.008-0.548,0.039-0.814,0.125   c-0.055,0.016-0.102,0.031-0.149,0.047c-0.055,0.023-0.11,0.039-0.164,0.07c-0.11,0.039-0.211,0.094-0.305,0.156   c-0.07,0.039-0.133,0.086-0.196,0.133c-0.094,0.063-0.172,0.133-0.25,0.211c-0.063,0.055-0.117,0.11-0.164,0.172   c-0.016,0.008-0.024,0.023-0.039,0.039c-0.133,0.156-0.25,0.329-0.344,0.501c-0.031,0.063-0.062,0.125-0.086,0.196   c-0.086,0.18-0.141,0.376-0.18,0.563c-0.016,0.078-0.023,0.164-0.031,0.243c-0.008,0.094-0.016,0.188-0.016,0.282   c0,0.274,0.039,0.548,0.125,0.814c0.008,0.039,0.023,0.086,0.039,0.125c0.024,0.063,0.047,0.125,0.078,0.18   c0.039,0.11,0.094,0.211,0.157,0.305c0.039,0.07,0.086,0.133,0.133,0.196c0.063,0.094,0.133,0.172,0.211,0.25   c0.063,0.07,0.133,0.141,0.211,0.203l0.086,0.078l12.706,10.883v48.711c0,1.51,1.22,2.738,2.738,2.738   c1.51,0,2.738-1.228,2.738-2.738V32.162l12.698-10.883l0.086-0.078c0.094-0.078,0.18-0.164,0.266-0.258   c0.055-0.063,0.102-0.125,0.149-0.188c0.047-0.055,0.086-0.11,0.117-0.172c0.039-0.039,0.063-0.086,0.078-0.125   c0.039-0.07,0.078-0.141,0.11-0.211c0.039-0.086,0.078-0.18,0.102-0.274c0.031-0.086,0.063-0.18,0.078-0.274   c0.039-0.188,0.063-0.383,0.063-0.579C59.134,19.026,59.126,18.94,59.119,18.846z M42.65,27.296l-6.345-5.43h12.682L42.65,27.296z"/></g><text x="0" y="115" fill="#000000" font-size="5px" font-weight="bold" font-family="'Helvetica Neue', Helvetica, Arial-Unicode, Arial, Sans-serif">Created by Garrett Knoll</text><text x="0" y="120" fill="#000000" font-size="5px" font-weight="bold" font-family="'Helvetica Neue', Helvetica, Arial-Unicode, Arial, Sans-serif">from the Noun Project</text></svg>