<svg xmlns="http://www.w3.org/2000/svg" xmlns:xlink="http://www.w3.org/1999/xlink" version="1.1" x="0px" y="0px" viewBox="0 0 100 125" enable-background="new 0 0 100 100" xml:space="preserve"><path d="M66.723,67.471v13.402c0,1.51-1.228,2.738-2.738,2.738c-1.518,0-2.738-1.228-2.738-2.738V67.471  c0-1.51,1.221-2.738,2.738-2.738C65.495,64.733,66.723,65.961,66.723,67.471z"/><path d="M66.199,18.65c-0.031-0.157-0.07-0.305-0.125-0.462c-0.031-0.086-0.063-0.172-0.11-0.258  c-0.024-0.063-0.055-0.117-0.094-0.18c-0.047-0.078-0.094-0.156-0.149-0.235c-0.047-0.055-0.094-0.117-0.141-0.172  c-0.062-0.078-0.133-0.149-0.203-0.211c-0.078-0.078-0.157-0.149-0.25-0.211c-0.063-0.047-0.125-0.094-0.196-0.133  c-0.094-0.063-0.196-0.117-0.305-0.156c-0.055-0.031-0.117-0.055-0.18-0.078c-0.039-0.016-0.086-0.031-0.125-0.039  c-0.266-0.086-0.54-0.125-0.814-0.125H36.015c-0.274-0.008-0.547,0.039-0.813,0.125c-0.063,0.016-0.118,0.039-0.172,0.055  c-0.047,0.016-0.094,0.039-0.141,0.063c-0.109,0.039-0.211,0.094-0.305,0.156c-0.071,0.039-0.133,0.086-0.196,0.133  c-0.094,0.063-0.172,0.133-0.251,0.211c-0.063,0.055-0.117,0.11-0.164,0.172c-0.016,0.008-0.023,0.023-0.039,0.039  c-0.133,0.156-0.251,0.329-0.344,0.501c-0.031,0.063-0.063,0.125-0.086,0.196c-0.086,0.18-0.141,0.376-0.18,0.563  c-0.016,0.078-0.023,0.164-0.031,0.243c-0.008,0.094-0.016,0.188-0.016,0.282c0,0.274,0.039,0.548,0.125,0.814  c0.008,0.039,0.023,0.086,0.039,0.125c0.023,0.063,0.047,0.125,0.078,0.18c0.039,0.11,0.094,0.211,0.157,0.305  c0.039,0.07,0.086,0.133,0.133,0.196c0.063,0.094,0.133,0.172,0.211,0.25c0.063,0.07,0.133,0.141,0.211,0.203l0.086,0.078  l12.706,10.883v48.711c0,1.51,1.221,2.738,2.738,2.738c1.51,0,2.738-1.228,2.738-2.738V32.162l12.698-10.883l0.086-0.078  c0.078-0.07,0.157-0.141,0.219-0.211c0.071-0.078,0.141-0.157,0.196-0.235c0.063-0.078,0.118-0.156,0.165-0.242  c0.102-0.172,0.18-0.352,0.243-0.532c0.031-0.086,0.047-0.164,0.07-0.25c0.031-0.141,0.047-0.274,0.055-0.407  c0.016-0.149,0.016-0.289,0-0.43C66.223,18.815,66.215,18.729,66.199,18.65z M49.762,27.296l-6.345-5.43h12.682L49.762,27.296z"/><text x="0" y="115" fill="#000000" font-size="5px" font-weight="bold" font-family="'Helvetica Neue', Helvetica, Arial-Unicode, Arial, Sans-serif">Created by Garrett Knoll</text><text x="0" y="120" fill="#000000" font-size="5px" font-weight="bold" font-family="'Helvetica Neue', Helvetica, Arial-Unicode, Arial, Sans-serif">from the Noun Project</text></svg>