<?xml version="1.0" encoding="UTF-8" standalone="no"?>
<svg
   xmlns:dc="http://purl.org/dc/elements/1.1/"
   xmlns:cc="http://creativecommons.org/ns#"
   xmlns:rdf="http://www.w3.org/1999/02/22-rdf-syntax-ns#"
   xmlns:svg="http://www.w3.org/2000/svg"
   xmlns="http://www.w3.org/2000/svg"
   xmlns:sodipodi="http://sodipodi.sourceforge.net/DTD/sodipodi-0.dtd"
   xmlns:inkscape="http://www.inkscape.org/namespaces/inkscape"
   version="1.1"
   x="0px"
   y="0px"
   viewBox="0 0 90 67.221001"
   enable-background="new 0 0 100 100"
   xml:space="preserve"
   id="svg24"
   sodipodi:docname="signal_5.svg"
   inkscape:version="0.92.3 (2405546, 2018-03-11)"
   width="90"
   height="67.221001"><metadata
     id="metadata30"><rdf:RDF><cc:Work
         rdf:about=""><dc:format>image/svg+xml</dc:format><dc:type
           rdf:resource="http://purl.org/dc/dcmitype/StillImage" /><dc:title></dc:title></cc:Work></rdf:RDF></metadata><defs
     id="defs28" /><sodipodi:namedview
     pagecolor="#ffffff"
     bordercolor="#666666"
     borderopacity="1"
     objecttolerance="10"
     gridtolerance="10"
     guidetolerance="10"
     inkscape:pageopacity="0"
     inkscape:pageshadow="2"
     inkscape:window-width="2692"
     inkscape:window-height="1586"
     id="namedview26"
     showgrid="false"
     inkscape:zoom="5.6568543"
     inkscape:cx="19.234074"
     inkscape:cy="12.858452"
     inkscape:window-x="695"
     inkscape:window-y="553"
     inkscape:window-maximized="0"
     inkscape:current-layer="svg24"
     units="px"
     fit-margin-top="0"
     fit-margin-left="0"
     fit-margin-right="0"
     fit-margin-bottom="0" /><path
     d="m 73.103,67.22 c -1.507,0 -2.728,-1.222 -2.728,-2.728 V 14.718 c 0,-1.506 1.221,-2.728 2.728,-2.728 1.507,0 2.728,1.222 2.728,2.728 v 49.774 c -0.001,1.506 -1.222,2.728 -2.728,2.728 z"
     id="path2"
     inkscape:connector-curvature="0" /><path
     d="m 30.594,67.22 c -1.507,0 -2.728,-1.222 -2.728,-2.728 V 51.143 c 0,-1.506 1.221,-2.728 2.728,-2.728 1.506,0 2.728,1.222 2.728,2.728 v 13.349 c 0,1.506 -1.221,2.728 -2.728,2.728 z"
     id="path4"
     inkscape:connector-curvature="0" /><path
     d="m 44.764,67.22 c -1.506,0 -2.728,-1.222 -2.728,-2.728 V 39.379 c 0,-1.506 1.221,-2.728 2.728,-2.728 1.507,0 2.728,1.222 2.728,2.728 v 25.113 c -10e-4,1.506 -1.222,2.728 -2.728,2.728 z"
     id="path6"
     inkscape:connector-curvature="0" /><path
     d="m 58.933,67.22 c -1.507,0 -2.728,-1.222 -2.728,-2.728 V 26.709 c 0,-1.506 1.221,-2.728 2.728,-2.728 1.507,0 2.728,1.222 2.728,2.728 v 37.783 c 0,1.506 -1.221,2.728 -2.728,2.728 z"
     id="path8"
     inkscape:connector-curvature="0" /><path
     d="m 87.272,67.22 c -1.507,0 -2.728,-1.222 -2.728,-2.728 V 2.728 C 84.544,1.222 85.765,0 87.272,0 88.779,0 90,1.221 90,2.728 v 61.765 c 0,1.505 -1.221,2.727 -2.728,2.727 z"
     id="path10"
     inkscape:connector-curvature="0" /><g
     id="g18"
     transform="translate(-5,-16.389)"><path
       d="M 37.827,19.095 C 37.819,19.017 37.811,18.931 37.796,18.853 37.757,18.666 37.702,18.471 37.617,18.292 37.594,18.222 37.563,18.159 37.531,18.097 37.437,17.926 37.321,17.754 37.188,17.598 37.172,17.582 37.164,17.567 37.149,17.559 37.103,17.497 37.048,17.442 36.985,17.388 36.907,17.31 36.821,17.24 36.736,17.178 36.674,17.131 36.611,17.085 36.541,17.046 36.44,16.984 36.338,16.929 36.237,16.89 36.175,16.859 36.113,16.835 36.042,16.812 36.003,16.796 35.964,16.781 35.925,16.773 35.668,16.687 35.395,16.648 35.114,16.648 H 7.728 c -0.272,0 -0.545,0.039 -0.811,0.125 -0.046,0.016 -0.093,0.031 -0.14,0.047 -0.062,0.016 -0.117,0.039 -0.172,0.07 -0.148,0.062 -0.296,0.148 -0.436,0.249 -0.062,0.039 -0.117,0.086 -0.171,0.133 -0.062,0.047 -0.125,0.101 -0.179,0.156 -0.062,0.055 -0.109,0.109 -0.164,0.171 -0.008,0.016 -0.024,0.023 -0.031,0.039 -0.054,0.07 -0.109,0.14 -0.156,0.21 -0.086,0.125 -0.156,0.242 -0.21,0.374 -0.031,0.055 -0.054,0.117 -0.07,0.171 -0.062,0.148 -0.109,0.304 -0.14,0.46 C 5.032,18.931 5.025,19.017 5.017,19.095 5.008,19.189 5,19.283 5,19.376 c 0,0.288 0.047,0.569 0.14,0.849 0.023,0.086 0.062,0.179 0.101,0.265 0.031,0.07 0.07,0.14 0.109,0.21 0.031,0.062 0.062,0.117 0.101,0.171 0.132,0.21 0.304,0.397 0.499,0.569 l 0.047,0.039 12.696,10.88 v 48.523 c 0,1.504 1.223,2.728 2.728,2.728 1.512,0 2.728,-1.224 2.728,-2.728 V 32.36 l 12.657,-10.841 0.086,-0.078 c 0.078,-0.062 0.148,-0.132 0.21,-0.203 0.078,-0.078 0.148,-0.156 0.21,-0.249 0.047,-0.062 0.094,-0.125 0.133,-0.195 0.062,-0.094 0.117,-0.195 0.156,-0.304 0.031,-0.055 0.055,-0.117 0.078,-0.179 0.016,-0.039 0.031,-0.086 0.039,-0.125 0.086,-0.265 0.124,-0.538 0.124,-0.811 0.001,-0.092 -0.007,-0.186 -0.015,-0.28 z m -16.398,8.418 -6.321,-5.409 h 12.633 z"
       id="path12"
       inkscape:connector-curvature="0" /><g
       id="g16"><line
         x1="7.7360001"
         y1="19.375999"
         x2="7.7280002"
         y2="19.375999"
         id="line14"
         style="fill:none" /></g></g></svg>