<?xml version="1.0" encoding="UTF-8" standalone="no"?>
<svg
   xmlns:dc="http://purl.org/dc/elements/1.1/"
   xmlns:cc="http://creativecommons.org/ns#"
   xmlns:rdf="http://www.w3.org/1999/02/22-rdf-syntax-ns#"
   xmlns:svg="http://www.w3.org/2000/svg"
   xmlns="http://www.w3.org/2000/svg"
   xmlns:sodipodi="http://sodipodi.sourceforge.net/DTD/sodipodi-0.dtd"
   xmlns:inkscape="http://www.inkscape.org/namespaces/inkscape"
   version="1.1"
   x="0px"
   y="0px"
   viewBox="0 0 90 67.221001"
   enable-background="new 0 0 100 100"
   xml:space="preserve"
   id="svg24"
   sodipodi:docname="signal_e.svg"
   inkscape:version="0.92.3 (2405546, 2018-03-11)"
   width="90"
   height="67.221001"><metadata
     id="metadata30"><rdf:RDF><cc:Work
         rdf:about=""><dc:format>image/svg+xml</dc:format><dc:type
           rdf:resource="http://purl.org/dc/dcmitype/StillImage" /><dc:title /></cc:Work></rdf:RDF></metadata><defs
     id="defs28" /><sodipodi:namedview
     pagecolor="#ffffff"
     bordercolor="#666666"
     borderopacity="1"
     objecttolerance="10"
     gridtolerance="10"
     guidetolerance="10"
     inkscape:pageopacity="0"
     inkscape:pageshadow="2"
     inkscape:window-width="3706"
     inkscape:window-height="2049"
     id="namedview26"
     showgrid="false"
     inkscape:zoom="8.0000001"
     inkscape:cx="-39.54848"
     inkscape:cy="1.8397591"
     inkscape:window-x="134"
     inkscape:window-y="55"
     inkscape:window-maximized="1"
     inkscape:current-layer="svg24"
     units="px"
     fit-margin-top="0"
     fit-margin-left="0"
     fit-margin-right="0"
     fit-margin-bottom="0" /><g
     id="g18"
     transform="translate(-5,-16.389)"><path
       d="M 37.827,19.095 C 37.819,19.017 37.811,18.931 37.796,18.853 37.757,18.666 37.702,18.471 37.617,18.292 37.594,18.222 37.563,18.159 37.531,18.097 37.437,17.926 37.321,17.754 37.188,17.598 37.172,17.582 37.164,17.567 37.149,17.559 37.103,17.497 37.048,17.442 36.985,17.388 36.907,17.31 36.821,17.24 36.736,17.178 36.674,17.131 36.611,17.085 36.541,17.046 36.44,16.984 36.338,16.929 36.237,16.89 36.175,16.859 36.113,16.835 36.042,16.812 36.003,16.796 35.964,16.781 35.925,16.773 35.668,16.687 35.395,16.648 35.114,16.648 H 7.728 c -0.272,0 -0.545,0.039 -0.811,0.125 -0.046,0.016 -0.093,0.031 -0.14,0.047 -0.062,0.016 -0.117,0.039 -0.172,0.07 -0.148,0.062 -0.296,0.148 -0.436,0.249 -0.062,0.039 -0.117,0.086 -0.171,0.133 -0.062,0.047 -0.125,0.101 -0.179,0.156 -0.062,0.055 -0.109,0.109 -0.164,0.171 -0.008,0.016 -0.024,0.023 -0.031,0.039 -0.054,0.07 -0.109,0.14 -0.156,0.21 -0.086,0.125 -0.156,0.242 -0.21,0.374 -0.031,0.055 -0.054,0.117 -0.07,0.171 -0.062,0.148 -0.109,0.304 -0.14,0.46 C 5.032,18.931 5.025,19.017 5.017,19.095 5.008,19.189 5,19.283 5,19.376 c 0,0.288 0.047,0.569 0.14,0.849 0.023,0.086 0.062,0.179 0.101,0.265 0.031,0.07 0.07,0.14 0.109,0.21 0.031,0.062 0.062,0.117 0.101,0.171 0.132,0.21 0.304,0.397 0.499,0.569 l 0.047,0.039 12.696,10.88 v 48.523 c 0,1.504 1.223,2.728 2.728,2.728 1.512,0 2.728,-1.224 2.728,-2.728 V 32.36 l 12.657,-10.841 0.086,-0.078 c 0.078,-0.062 0.148,-0.132 0.21,-0.203 0.078,-0.078 0.148,-0.156 0.21,-0.249 0.047,-0.062 0.094,-0.125 0.133,-0.195 0.062,-0.094 0.117,-0.195 0.156,-0.304 0.031,-0.055 0.055,-0.117 0.078,-0.179 0.016,-0.039 0.031,-0.086 0.039,-0.125 0.086,-0.265 0.124,-0.538 0.124,-0.811 0.001,-0.092 -0.007,-0.186 -0.015,-0.28 z m -16.398,8.418 -6.321,-5.409 h 12.633 z"
       id="path12"
       inkscape:connector-curvature="0" /><g
       id="g16"><line
         x1="7.7360001"
         y1="19.375999"
         x2="7.7280002"
         y2="19.375999"
         id="line14"
         style="fill:none" /></g></g><path
     inkscape:connector-curvature="0"
     id="line72"
     d="M 154.002,34.061 V -11.23"
     style="fill:none" /><g
     id="g1755"
     transform="translate(-84.374999)"><g
       id="g66"
       transform="translate(77.625999,-23.814)"><g
         id="g64"><g
           id="g58"><path
             id="path56"
             d="m 67.746,73.207 c -1.562,0 -2.828,-1.266 -2.828,-2.828 V 61.48 c 0,-1.562 1.266,-2.828 2.828,-2.828 1.562,0 2.828,1.266 2.828,2.828 v 8.899 c 0,1.562 -1.266,2.828 -2.828,2.828 z"
             inkscape:connector-curvature="0" /></g><g
           id="g62"><path
             id="path60"
             d="m 67.744,81.011 c -0.745,0 -1.47,-0.302 -1.998,-0.83 -0.528,-0.527 -0.83,-1.253 -0.83,-1.997 0,-0.744 0.302,-1.471 0.83,-1.998 1.046,-1.056 2.95,-1.056 3.997,0 0.528,0.518 0.829,1.254 0.829,1.998 0,0.744 -0.302,1.47 -0.829,1.997 -0.528,0.528 -1.254,0.83 -1.999,0.83 z"
             inkscape:connector-curvature="0" /></g></g></g><path
       id="path74"
       d="m 145.36914,15.091797 c -1.046,0 -1.99728,0.576 -2.48828,1.5 l -3.28711,6.144531 v 0.002 c -0.57882,1.08246 -2.62196,4.905278 -3.56445,6.667969 l -4.4043,8.234375 v 0.0039 c -4.59523,8.595033 -8.84648,16.54396 -13.16797,24.632813 -0.472,0.877 -0.44368,1.93325 0.0684,2.78125 0.509,0.858 1.43188,1.375 2.42188,1.375 h 10.67773 7.96875 30.20508 c 0.99,0 1.91483,-0.517 2.42383,-1.375 0.512,-0.848 0.5384,-1.90425 0.0664,-2.78125 -8.01489,-15.002054 -24.42187,-45.685547 -24.42187,-45.685547 -0.49,-0.924 -1.45205,-1.5 -2.49805,-1.5 z m 0,8.822265 19.71094,36.865235 h -25.48633 -7.96875 -5.95898 l 13.92773,-26.048828 v -0.01367 z"
       style="fill:#000000"
       inkscape:connector-curvature="0" /></g><line
     style="fill:none"
     x1="195.33838"
     y1="34.061001"
     x2="195.33838"
     y2="-11.23"
     id="line1717" /></svg>